<svg width="250" height="249" viewBox="0 0 250 249" fill="none" xmlns="http://www.w3.org/2000/svg">
<g clip-path="url(#clip0_2_103)">
<path d="M249.2 0.279999H0.0999985V248.68H249.2V0.279999Z" fill="#3D4A5D"/>
<path d="M124.7 243.4C59.21 243.4 6 190.59 6 124.6C6 59.75 59.61 5.60001 124.7 5.60001C189.98 5.60001 244.1 58.65 244.1 124.6C244.1 189.91 190.39 243.4 124.7 243.4ZM124.7 13.1C64.23 13.1 13.3 63.45 13.3 124.6C13.3 185.37 63.49 236 123.8 236C185.9 236 236.6 186.3 236.6 124.6C236.6 63.65 185.96 13.1 124.6 13.1H124.7Z" fill="#4A688D"/>
<path d="M124.5 42.84C102.35 42.84 83.96 50.01 72.43 60.62L73.99 64.78C75.6 63.46 77.11 62.98 79.3 62.98C83.26 62.98 86.23 65.91 86.66 67.83C87.2 67.61 87.96 67.51 88.73 67.51C92.47 67.51 93.98 70.91 94.09 72.83H60.93C48.91 86.99 42.93 103.98 42.93 125.13H43.55C49.23 124.23 52.76 126.88 54.16 130.93C55.77 129.97 56.64 129.59 58.77 129.59C62.84 129.59 64.75 132.19 65.33 134.89C66.05 134.51 66.87 134.36 67.84 134.36C72.48 134.36 73.56 138.41 73.67 140.18H44.78C52.1 175.71 82 206.01 123.95 206.01C150.01 206.01 169.82 195.4 184.93 180.05H145.43C146.05 174.93 149.96 172.28 153.2 172.61C154.33 172.72 155.68 173.15 156.65 173.42C158.15 168.72 161.34 166.02 167.12 166.02C169.92 166.02 171.53 166.92 173.3 167.56C176.83 161.66 180.79 158.52 186.98 158.52C191.88 158.52 194.85 160.6 196.98 163.49C204.3 150.61 206.59 138.79 206.59 125.13C206.59 106.06 201.12 90.82 194.22 82.12H140.95C141.48 76.55 145.74 73.71 149.16 73.92C150.29 73.97 151.06 74.24 152.08 74.51C154.53 68.89 158.21 66.76 163.11 66.76C165.97 66.76 167.27 67.45 168.99 68.2C171.95 62.92 175.76 59.73 182.16 59.73C190 59.73 195.67 66.76 196.39 72.83C197.26 72.61 198.18 72.45 199.15 72.45C205.45 72.45 207.06 77.68 207.49 81.9H206.9H207.57V82.12H207.09H207.51V81.9H207.14H207.46H206.93H207.35H206.88H207.3H206.82H207.25H206.77H207.19H206.66H207.09H206.56H206.98H206.5H206.93H206.45H206.88H206.4H206.82H206.29H206.72H206.19H206.61H206.08H206.5H205.97H206.4H205.92H206.34H205.86H206.29H205.81H206.24H205.71H206.13H205.6H206.02H205.55H205.97H205.5H205.92H205.44H205.86H205.39H205.81H205.28H205.71H205.18H205.6H205.07H205.5H205.02H205.44H204.96H205.39H204.91H205.34H204.81H205.23H204.7H205.12H204.6H205.02H204.49H204.91H204.38H204.81H204.33H204.76H204.28H204.7H204.23H204.65H204.12H204.54H204.02H204.44H203.96H204.38H203.91H204.33H203.8H204.23H203.75H204.17H203.7H204.12H203.64H204.07H203.54H203.96H203.43H203.86H203.38H203.8H203.33H203.75H203.22H203.64H203.12H203.54H203.01H203.43H202.96H203.38H202.91H203.33H202.8H203.22H202.75H203.17H202.7H203.12H202.64H203.06H202.54H202.96H202.43H202.85H202.38H202.8H202.33H202.75H202.22H202.64H202.12H202.54H202.01H202.43H201.96H202.38H201.91H202.33H201.8H202.22H201.75H202.17H201.7H202.12H201.65H202.07H201.54H201.96H201.43H201.86H201.38H201.8H201.33H201.75H201.22H201.65H201.12H201.54H201.01H201.43H200.96H201.38H200.91H201.33H200.8H201.22H200.75H201.17H200.7H201.12H200.65H201.07H200.54H200.96H200.44C186.87 55.83 166.45 42.84 124.5 42.84Z" fill="#F4F7D1"/>
<path d="M100.8 100.2C100.27 91.55 101.99 84.05 108.28 75.19C109.3 84.05 115.23 92.19 121.68 99.83C128.79 108.32 123.17 120.77 132.03 130.65" stroke="black" stroke-width="3.19" stroke-miterlimit="10" stroke-linecap="round" stroke-linejoin="round"/>
<path d="M62.61 84.92C71.16 93.41 80.94 98.75 94.05 102.42C102.66 105.02 106.46 108.28 111.11 116.31C116.93 126.24 124.41 132.14 134.81 131.66C147.09 131.07 157.12 120.99 173.11 115.09C181.17 111.9 185.91 112.7 188.61 117.13C190.43 120.27 194.18 120.27 195.84 121.7C196.81 122.5 194.12 123.72 192.31 123.61C186.68 123.29 183.77 124.91 178.52 124.48C167.96 123.61 157.75 133.49 143.31 142.72C133.11 149.27 125.47 159.04 105.93 162.18C91.49 164.72 76.84 161.79 70.04 158.31C79.05 157.09 86.21 150.06 90.91 146.44C92.83 144.96 94.44 144.22 97.35 142.94C87.42 139.9 82.22 131.25 80.35 124.53C67.75 118.41 60.44 106.75 62.61 84.92Z" stroke="black" stroke-width="3.19" stroke-miterlimit="10" stroke-linecap="round" stroke-linejoin="round"/>
</g>
<defs>
<clipPath id="clip0_2_103">
<rect width="250" height="249" fill="white"/>
</clipPath>
</defs>
</svg>
